<svg xmlns="http://www.w3.org/2000/svg" viewBox="0 0 2007 1334" style="width: 2007px; height: 1334px; position: absolute; top: 0px; left: 0px; z-index: -1;">Sorry, your browser does not support inline SVG.<line x1="536" y1="316" x2="1521" y2="306" stroke="#000000"/><line x1="1021" y1="129" x2="1022" y2="664" stroke="#000000"/><line x1="586" y1="645" x2="1372" y2="44" stroke="#000000"/><line x1="760" y1="176" x2="1303" y2="459" stroke="#000000"/><rect x="735" y="216" width="654" height="458" stroke="#000000" stroke-width="2" fill="transparent"/><circle cx="936" cy="188" r="215.23243250030885" stroke="#000000" stroke-width="2" fill="transparent"/><circle cx="965" cy="280" r="109.62207806824317" stroke="#000000" stroke-width="2" fill="transparent"/><circle cx="983" cy="292" r="55.226805085936306" stroke="#000000" stroke-width="2" fill="transparent"/><circle cx="985" cy="296" r="29.698484809834994" stroke="#000000" stroke-width="2" fill="transparent"/><rect x="1023" y="512" width="355" height="146" stroke="#000000" stroke-width="2" fill="transparent"/><line x1="1044" y1="515" x2="1048" y2="656" stroke="#000000"/><line x1="1066" y1="515" x2="1071" y2="656" stroke="#000000"/><line x1="1101" y1="510" x2="1110" y2="650" stroke="#000000"/><line x1="1150" y1="518" x2="1159" y2="631" stroke="#000000"/><line x1="1187" y1="515" x2="1198" y2="649" stroke="#000000"/><line x1="1238" y1="517" x2="1248" y2="641" stroke="#000000"/><line x1="1285" y1="515" x2="1297" y2="637" stroke="#000000"/><line x1="1335" y1="518" x2="1342" y2="638" stroke="#000000"/><line x1="1031" y1="592" x2="1373" y2="584" stroke="#000000"/><circle cx="1227" cy="210" r="118.1905241548577" stroke="#000000" stroke-width="2" fill="transparent"/><circle cx="1210" cy="194" r="22.67156809750927" stroke="#000000" stroke-width="2" fill="transparent"/><circle cx="1213" cy="194" r="50.47771785649585" stroke="#000000" stroke-width="2" fill="transparent"/><rect x="959" y="683" width="320" height="582" stroke="#000000" stroke-width="2" fill="transparent"/><rect x="1147" y="903" width="423" height="197" stroke="#000000" stroke-width="2" fill="transparent"/><rect x="747" y="844" width="294" height="148" stroke="#000000" stroke-width="2" fill="transparent"/><line x1="1566" y1="945" x2="1661" y2="697" stroke="#000000"/><line x1="1549" y1="960" x2="1751" y2="785" stroke="#000000"/><line x1="1564" y1="955" x2="1859" y2="924" stroke="#000000"/><line x1="1595" y1="983" x2="1794" y2="1028" stroke="#000000"/><line x1="1476" y1="871" x2="1550" y2="930" stroke="#000000"/><line x1="736" y1="824" x2="719" y2="763" stroke="#000000"/><line x1="734" y1="851" x2="526" y2="893" stroke="#000000"/><line x1="743" y1="864" x2="556" y2="995" stroke="#000000"/><line x1="753" y1="896" x2="566" y2="1058" stroke="#000000"/><line x1="734" y1="976" x2="613" y2="1080" stroke="#000000"/></svg>