<svg xmlns="http://www.w3.org/2000/svg" viewBox="0 0 1897 1292" style="width: 1897px; height: 1292px; position: absolute; top: 0px; left: 0px; z-index: -1;">Sorry, your browser does not support inline SVG.<circle cx="792" cy="71" r="151.16216457830973" stroke="#000000" stroke-width="2" fill="#e0e40c"/><line x1="595" y1="75" x2="445" y2="100" stroke="#000000"/><line x1="596" y1="127" x2="555" y2="143" stroke="#000000"/><line x1="628" y1="196" x2="480" y2="268" stroke="#000000"/><line x1="679" y1="236" x2="616" y2="302" stroke="#000000"/><line x1="742" y1="257" x2="731" y2="295" stroke="#000000"/><line x1="992" y1="28" x2="1212" y2="3" stroke="#000000"/><line x1="1006" y1="94" x2="1237" y2="80" stroke="#000000"/><line x1="1015" y1="171" x2="1077" y2="210" stroke="#000000"/><line x1="948" y1="244" x2="1057" y2="407" stroke="#000000"/><line x1="829" y1="274" x2="832" y2="375" stroke="#000000"/><line x1="589" y1="13" x2="519" y2="15" stroke="#000000"/><line x1="885" y1="271" x2="892" y2="280" stroke="#000000"/><line x1="999" y1="232" x2="974" y2="207" stroke="#000000"/><circle cx="145" cy="1003" r="410.1621630526151" stroke="#000000" stroke-width="2" fill="#4400ff"/><circle cx="153" cy="760" r="104.01922899156675" stroke="#000000" stroke-width="2" fill="#17de77"/><circle cx="188" cy="889" r="108.46197490364999" stroke="#000000" stroke-width="2" fill="#17de77"/><circle cx="49" cy="837" r="97.6165969494942" stroke="#000000" stroke-width="2" fill="#17de77"/><circle cx="129" cy="812" r="121.63058825805291" stroke="#2cf26e" stroke-width="2" fill="#17de77"/><circle cx="138" cy="805" r="150.74813431681335" stroke="0)" stroke-width="2" fill="#17de77"/><circle cx="76" cy="985" r="79.30952023559341" stroke="0)" stroke-width="2" fill="#17de77"/><circle cx="268" cy="844" r="76.89603370785778" stroke="0)" stroke-width="2" fill="#17de77"/><circle cx="241" cy="947" r="65.94694837519019" stroke="0)" stroke-width="2" fill="#17de77"/><circle cx="125" cy="987" r="81.8413098624405" stroke="0)" stroke-width="2" fill="#17de77"/><circle cx="38" cy="933" r="54.00925846556311" stroke="0)" stroke-width="2" fill="#17de77"/><circle cx="415" cy="1256" r="41.48493702538308" stroke="0)" stroke-width="2" fill="#17de77"/><circle cx="447" cy="1224" r="26.627053911388696" stroke="0)" stroke-width="2" fill="#17de77"/><circle cx="405" cy="1232" r="33.83784863137726" stroke="0)" stroke-width="2" fill="#17de77"/><circle cx="371" cy="1240" r="28" stroke="0)" stroke-width="2" fill="#17de77"/><circle cx="392" cy="1277" r="37.16180835212409" stroke="0)" stroke-width="2" fill="#17de77"/><circle cx="38" cy="1207" r="38.897300677553446" stroke="0)" stroke-width="2" fill="#17de77"/><circle cx="37" cy="1229" r="47.51841748206689" stroke="0)" stroke-width="2" fill="#17de77"/><circle cx="83" cy="1260" r="45.79301256742124" stroke="0)" stroke-width="2" fill="#17de77"/><circle cx="34" cy="1262" r="67.11929677819934" stroke="0)" stroke-width="2" fill="#17de77"/><line x1="563" y1="47" x2="491" y2="47" stroke="0)"/><line x1="583" y1="103" x2="464" y2="128" stroke="0)"/><line x1="602" y1="162" x2="526" y2="198" stroke="0)"/><line x1="668" y1="208" x2="571" y2="276" stroke="0)"/><line x1="710" y1="253" x2="648" y2="344" stroke="0)"/><line x1="785" y1="263" x2="770" y2="388" stroke="0)"/><line x1="860" y1="263" x2="892" y2="373" stroke="0)"/><line x1="914" y1="231" x2="994" y2="365" stroke="0)"/><line x1="943" y1="201" x2="1022" y2="297" stroke="0)"/><line x1="974" y1="175" x2="1096" y2="275" stroke="0)"/><line x1="990" y1="132" x2="1158" y2="143" stroke="0)"/><line x1="993" y1="60" x2="1180" y2="44" stroke="0)"/><line x1="971" y1="26" x2="973" y2="13" stroke="0)"/><line x1="980" y1="16" x2="1024" y2="10" stroke="0)"/><line x1="857" y1="270" x2="880" y2="353" stroke="0)"/><line x1="917" y1="262" x2="974" y2="363" stroke="#e3ff0f"/><line x1="855" y1="277" x2="863" y2="340" stroke="#e3ff0f"/><line x1="966" y1="232" x2="1051" y2="336" stroke="#e3ff0f"/><line x1="994" y1="183" x2="1018" y2="205" stroke="#e3ff0f"/><line x1="1018" y1="134" x2="1143" y2="134" stroke="#e3ff0f"/><line x1="1011" y1="52" x2="1163" y2="36" stroke="#e3ff0f"/><line x1="774" y1="274" x2="756" y2="362" stroke="#e3ff0f"/><line x1="706" y1="248" x2="671" y2="304" stroke="#e3ff0f"/><line x1="652" y1="226" x2="564" y2="292" stroke="#e3ff0f"/><line x1="597" y1="164" x2="507" y2="210" stroke="#e3ff0f"/><line x1="581" y1="103" x2="491" y2="127" stroke="#e3ff0f"/><line x1="575" y1="37" x2="462" y2="41" stroke="#e3ff0f"/></svg>